<svg xmlns="http://www.w3.org/2000/svg" width="18.26" height="24" viewBox="0 0 18.26 24"><defs><style>.a{fill:#666;}</style></defs><g transform="translate(-57.652)"><path class="a" d="M69.845,0H60.206a2.557,2.557,0,0,0-2.554,2.554V21.446A2.557,2.557,0,0,0,60.206,24H73.358a2.558,2.558,0,0,0,2.554-2.554V6.046Zm3.513,22.435H60.206a.99.99,0,0,1-.99-.989V2.554a.99.99,0,0,1,.99-.988l9.053-.009V4.9a1.773,1.773,0,0,0,1.771,1.772l3.279-.009.036,14.78A.989.989,0,0,1,73.358,22.435Z"/><path class="a" d="M178.3,159.736a.5.5,0,0,0-.709,0l-2.8,2.8a.5.5,0,0,0,.354.856h1.226v3.637a.668.668,0,0,0,.667.668h1.823a.668.668,0,0,0,.668-.668V163.4h1.226a.5.5,0,0,0,.355-.856Z" transform="translate(-111.167 -151.645)"/></g></svg>